<svg width="520" height="548" viewBox="0 0 520 548" fill="none" xmlns="http://www.w3.org/2000/svg">
<path d="M496.745 447.708L496.744 447.71C491.753 459.602 485.573 468.05 478.465 474.329C471.355 480.61 463.295 484.74 454.516 487.967C447.254 490.638 439.521 492.684 431.431 494.825C429.73 495.275 428.014 495.729 426.283 496.194C416.328 498.869 405.909 501.897 395.299 506.542L395.256 506.561L395.217 506.588C363.287 528.539 315.884 547.5 263.5 547.5C214.052 547.5 182.154 544.505 139.283 521.584C123.875 508.479 104.413 498.744 85.3663 489.218C81.4797 487.274 77.6103 485.338 73.7962 483.385C51.2253 471.824 30.5969 459.629 19.4107 441.246L19.4091 441.243C8.04903 422.827 3.34908 399.774 1.53737 374.34C0.168628 355.124 0.450006 334.594 0.736153 313.716C0.828812 306.956 0.921971 300.159 0.959763 293.358C1.0062 285.053 0.968954 276.745 0.931834 268.465C0.845448 249.194 0.759727 230.072 1.73091 211.478C3.11896 184.901 6.66502 159.454 15.4376 136.291C32.9821 89.9655 71.4728 52.6721 115.238 28.8066C158.997 4.94455 208.274 -5.12173 252.593 3.60494C296.92 12.6699 336.355 40.5443 371.541 69.8301C406.713 99.1041 437.55 130.047 463.14 167.372C488.736 205.04 509.691 249.078 516.778 297.804C523.865 346.534 517.086 399.641 496.745 447.708Z" fill="url(#paint0_linear_47_34)" stroke="black"/>
<defs>
<linearGradient id="paint0_linear_47_34" x1="260" y1="0" x2="260" y2="548" gradientUnits="userSpaceOnUse">
<stop stop-color="#007E85"/>
<stop offset="1" stop-color="#2B8500" stop-opacity="0.49"/>
</linearGradient>
</defs>
</svg>
